<svg xmlns="http://www.w3.org/2000/svg" viewBox="0 0 24 24" width="24" height="24">
  <path fill="#4CAF50" d="M12,2L4.5,8L3,6.5l8.5-6.5L20,6.5L18.5,8L12,2z"/>
  <path fill="#4CAF50" d="M12,22l7.5-6l1.5,1.5l-8.5,6.5L4,17.5L5.5,16L12,22z"/>
  <path fill="#4CAF50" d="M3,17.25V6.75L4.5,8v7.5L3,17.25z"/>
  <path fill="#4CAF50" d="M21,17.25V6.75L19.5,8v7.5L21,17.25z"/>
  <path fill="#4CAF50" d="M12,4L6,9v6l6,5l6-5V9L12,4z M16,9.5l-4-3l-4,3V15l4,3l4-3V9.5z"/>
  <path fill="#4CAF50" d="M12,8l-2,1.5v3L12,14l2-1.5v-3L12,8z"/>
</svg> 