<svg xmlns="http://www.w3.org/2000/svg" viewBox="0 0 24 24" width="24" height="24">
  <path fill="#4CAF50" d="M12,2L4,5v6.09c0,5.05,3.41,9.76,8,10.91c4.59-1.15,8-5.86,8-10.91V5L12,2z M18,11.09 c0,4-2.55,7.7-6,8.83c-3.45-1.13-6-4.82-6-8.83v-4.7l6-2.25l6,2.25V11.09z"/>
  <path fill="#4CAF50" d="M12,7c-2.76,0-5,2.24-5,5s2.24,5,5,5s5-2.24,5-5S14.76,7,12,7z M12,15c-1.66,0-3-1.34-3-3s1.34-3,3-3 s3,1.34,3,3S13.66,15,12,15z"/>
  <path fill="#4CAF50" d="M12,9c-1.66,0-3,1.34-3,3s1.34,3,3,3s3-1.34,3-3S13.66,9,12,9z M12,13c-0.55,0-1-0.45-1-1s0.45-1,1-1 s1,0.45,1,1S12.55,13,12,13z"/>
  <path fill="#4CAF50" d="M4,11c0.55,0,1-0.45,1-1s-0.45-1-1-1s-1,0.45-1,1S3.45,11,4,11z"/>
  <path fill="#4CAF50" d="M20,11c0.55,0,1-0.45,1-1s-0.45-1-1-1s-1,0.45-1,1S19.45,11,20,11z"/>
  <path fill="#4CAF50" d="M12,3c0.55,0,1-0.45,1-1s-0.45-1-1-1s-1,0.45-1,1S11.45,3,12,3z"/>
  <path fill="#4CAF50" d="M12,21c0.55,0,1-0.45,1-1s-0.45-1-1-1s-1,0.45-1,1S11.45,21,12,21z"/>
</svg> 