<svg xmlns="http://www.w3.org/2000/svg" viewBox="0 0 24 24" width="24" height="24">
  <path fill="#FF0000" d="M12,2C6.48,2,2,6.48,2,12s4.48,10,10,10s10-4.48,10-10S17.52,2,12,2z M12,20c-4.41,0-8-3.59-8-8 s3.59-8,8-8s8,3.59,8,8S16.41,20,12,20z"/>
  <path fill="#FF0000" d="M12,6c-3.31,0-6,2.69-6,6s2.69,6,6,6s6-2.69,6-6S15.31,6,12,6z M12,16c-2.21,0-4-1.79-4-4s1.79-4,4-4 s4,1.79,4,4S14.21,16,12,16z"/>
  <path fill="#FF0000" d="M12,10c-1.1,0-2,0.9-2,2s0.9,2,2,2s2-0.9,2-2S13.1,10,12,10z"/>
  <path fill="#FF0000" d="M5.5,8.5l1.5,2.5l-1.5,2.5l-1.5-2.5L5.5,8.5z"/>
  <path fill="#FF0000" d="M18.5,8.5l1.5,2.5l-1.5,2.5l-1.5-2.5L18.5,8.5z"/>
  <path fill="#FF0000" d="M12,3.5l1.5,2.5l-1.5,2.5l-1.5-2.5L12,3.5z"/>
  <path fill="#FF0000" d="M12,15.5l1.5,2.5l-1.5,2.5l-1.5-2.5L12,15.5z"/>
</svg> 