<svg xmlns="http://www.w3.org/2000/svg" viewBox="0 0 24 24" width="24" height="24">
  <path fill="#2196F3" d="M12,2C6.48,2,2,6.48,2,12s4.48,10,10,10s10-4.48,10-10S17.52,2,12,2z M12,20c-4.41,0-8-3.59-8-8 s3.59-8,8-8s8,3.59,8,8S16.41,20,12,20z"/>
  <path fill="#2196F3" d="M7,14c0.55,0,1-0.45,1-1s-0.45-1-1-1s-1,0.45-1,1S6.45,14,7,14z"/>
  <path fill="#2196F3" d="M12,14c0.55,0,1-0.45,1-1s-0.45-1-1-1s-1,0.45-1,1S11.45,14,12,14z"/>
  <path fill="#2196F3" d="M17,14c0.55,0,1-0.45,1-1s-0.45-1-1-1s-1,0.45-1,1S16.45,14,17,14z"/>
  <path fill="#2196F3" d="M5,11c0.28,0,0.5-0.22,0.5-0.5S5.28,10,5,10s-0.5,0.22-0.5,0.5S4.72,11,5,11z"/>
  <path fill="#2196F3" d="M19,11c0.28,0,0.5-0.22,0.5-0.5S19.28,10,19,10s-0.5,0.22-0.5,0.5S18.72,11,19,11z"/>
  <path fill="#2196F3" d="M5.5,8.5C5.78,8.5,6,8.28,6,8S5.78,7.5,5.5,7.5S5,7.72,5,8S5.22,8.5,5.5,8.5z"/>
  <path fill="#2196F3" d="M18.5,8.5c0.28,0,0.5-0.22,0.5-0.5s-0.22-0.5-0.5-0.5S18,7.72,18,8S18.22,8.5,18.5,8.5z"/>
  <path fill="#2196F3" d="M7.5,6.5C7.78,6.5,8,6.28,8,6S7.78,5.5,7.5,5.5S7,5.72,7,6S7.22,6.5,7.5,6.5z"/>
  <path fill="#2196F3" d="M16.5,6.5c0.28,0,0.5-0.22,0.5-0.5s-0.22-0.5-0.5-0.5S16,5.72,16,6S16.22,6.5,16.5,6.5z"/>
  <path fill="#2196F3" d="M10.5,5.5C10.78,5.5,11,5.28,11,5s-0.22-0.5-0.5-0.5S10,4.72,10,5S10.22,5.5,10.5,5.5z"/>
  <path fill="#2196F3" d="M13.5,5.5c0.28,0,0.5-0.22,0.5-0.5s-0.22-0.5-0.5-0.5S13,4.72,13,5S13.22,5.5,13.5,5.5z"/>
  <path fill="#2196F3" d="M5.5,15.5C5.78,15.5,6,15.28,6,15s-0.22-0.5-0.5-0.5S5,14.72,5,15S5.22,15.5,5.5,15.5z"/>
  <path fill="#2196F3" d="M18.5,15.5c0.28,0,0.5-0.22,0.5-0.5s-0.22-0.5-0.5-0.5S18,14.72,18,15S18.22,15.5,18.5,15.5z"/>
  <path fill="#2196F3" d="M7.5,17.5C7.78,17.5,8,17.28,8,17s-0.22-0.5-0.5-0.5S7,16.72,7,17S7.22,17.5,7.5,17.5z"/>
  <path fill="#2196F3" d="M16.5,17.5c0.28,0,0.5-0.22,0.5-0.5s-0.22-0.5-0.5-0.5S16,16.72,16,17S16.22,17.5,16.5,17.5z"/>
  <path fill="#2196F3" d="M10.5,18.5c0.28,0,0.5-0.22,0.5-0.5s-0.22-0.5-0.5-0.5S10,17.72,10,18S10.22,18.5,10.5,18.5z"/>
  <path fill="#2196F3" d="M13.5,18.5c0.28,0,0.5-0.22,0.5-0.5s-0.22-0.5-0.5-0.5S13,17.72,13,18S13.22,18.5,13.5,18.5z"/>
  <path fill="#2196F3" d="M6,12c0,0.55,0.45,1,1,1h10c0.55,0,1-0.45,1-1s-0.45-1-1-1H7C6.45,11,6,11.45,6,12z"/>
</svg> 