<svg xmlns="http://www.w3.org/2000/svg" viewBox="0 0 24 24" width="24" height="24">
  <path fill="#4CAF50" d="M22,16v-2l-8.5-5V3.5C13.5,2.67,12.83,2,12,2s-1.5,0.67-1.5,1.5V9L2,14v2l8.5-2.5V19L8,20.5V22l4-1l4,1 v-1.5L13.5,19v-5.5L22,16z"/>
  <path fill="#4CAF50" d="M12,4c0.55,0,1-0.45,1-1s-0.45-1-1-1s-1,0.45-1,1S11.45,4,12,4z"/>
  <path fill="#4CAF50" d="M4,14c0.55,0,1-0.45,1-1s-0.45-1-1-1s-1,0.45-1,1S3.45,14,4,14z"/>
  <path fill="#4CAF50" d="M20,14c0.55,0,1-0.45,1-1s-0.45-1-1-1s-1,0.45-1,1S19.45,14,20,14z"/>
  <path fill="#4CAF50" d="M12,22c0.55,0,1-0.45,1-1s-0.45-1-1-1s-1,0.45-1,1S11.45,22,12,22z"/>
</svg> 