<svg xmlns="http://www.w3.org/2000/svg" viewBox="0 0 24 24" width="24" height="24">
  <path fill="#4CAF50" d="M12,2C6.48,2,2,6.48,2,12s4.48,10,10,10s10-4.48,10-10S17.52,2,12,2z M12,20c-4.41,0-8-3.59-8-8 s3.59-8,8-8s8,3.59,8,8S16.41,20,12,20z"/>
  <path fill="#4CAF50" d="M12,6c-3.31,0-6,2.69-6,6s2.69,6,6,6s6-2.69,6-6S15.31,6,12,6z M12,16c-2.21,0-4-1.79-4-4s1.79-4,4-4 s4,1.79,4,4S14.21,16,12,16z"/>
  <path fill="#4CAF50" d="M12,10c-1.1,0-2,0.9-2,2s0.9,2,2,2s2-0.9,2-2S13.1,10,12,10z M12,12.5c-0.28,0-0.5-0.22-0.5-0.5 s0.22-0.5,0.5-0.5s0.5,0.22,0.5,0.5S12.28,12.5,12,12.5z"/>
  <path fill="#4CAF50" d="M7,9l2,2l-2,2l-2-2L7,9z"/>
  <path fill="#4CAF50" d="M17,9l2,2l-2,2l-2-2L17,9z"/>
  <path fill="#4CAF50" d="M12,4l2,2l-2,2l-2-2L12,4z"/>
  <path fill="#4CAF50" d="M12,16l2,2l-2,2l-2-2L12,16z"/>
</svg> 