<svg xmlns="http://www.w3.org/2000/svg" viewBox="0 0 24 24" width="24" height="24">
  <path fill="#4CAF50" d="M12,2L2,12l10,10l10-10L12,2z M12,20L4,12l8-8l8,8L12,20z"/>
  <path fill="#4CAF50" d="M12,6l-6,6l6,6l6-6L12,6z M12,16l-4-4l4-4l4,4L12,16z"/>
  <path fill="#4CAF50" d="M12,10l-2,2l2,2l2-2L12,10z"/>
  <path fill="#4CAF50" d="M12,4c0.55,0,1-0.45,1-1s-0.45-1-1-1s-1,0.45-1,1S11.45,4,12,4z"/>
  <path fill="#4CAF50" d="M12,22c0.55,0,1-0.45,1-1s-0.45-1-1-1s-1,0.45-1,1S11.45,22,12,22z"/>
  <path fill="#4CAF50" d="M4,12c0,0.55-0.45,1-1,1s-1-0.45-1-1s0.45-1,1-1S4,11.45,4,12z"/>
  <path fill="#4CAF50" d="M22,12c0,0.55-0.45,1-1,1s-1-0.45-1-1s0.45-1,1-1S22,11.45,22,12z"/>
</svg> 