<svg xmlns="http://www.w3.org/2000/svg" viewBox="0 0 24 24" width="24" height="24">
  <path fill="#607D8B" d="M15.9,18.45l1.91-1.91c0.29-0.29,0.29-0.77,0-1.06l-1.06-1.06c-0.29-0.29-0.77-0.29-1.06,0l-1.91,1.91 l-1.91-1.91c-0.29-0.29-0.77-0.29-1.06,0l-1.06,1.06c-0.29,0.29-0.29,0.77,0,1.06l1.91,1.91l-1.91,1.91c-0.29,0.29-0.29,0.77,0,1.06 l1.06,1.06c0.29,0.29,0.77,0.29,1.06,0l1.91-1.91l1.91,1.91c0.29,0.29,0.77,0.29,1.06,0l1.06-1.06c0.29-0.29,0.29-0.77,0-1.06 L15.9,18.45z"/>
  <path fill="#607D8B" d="M19.73,14.87l-1.32-1.32c-0.2-0.2-0.2-0.51,0-0.71l1.32-1.32c0.2-0.2,0.2-0.51,0-0.71L18.2,9.27 c-0.2-0.2-0.51-0.2-0.71,0l-1.32,1.32c-0.2,0.2-0.51,0.2-0.71,0l-1.32-1.32c-0.2-0.2-0.51-0.2-0.71,0l-1.32,1.32 c-0.2,0.2-0.51,0.2-0.71,0L10.07,9.27c-0.2-0.2-0.51-0.2-0.71,0L7.83,10.8c-0.2,0.2-0.2,0.51,0,0.71l1.32,1.32 c0.2,0.2,0.2,0.51,0,0.71l-1.32,1.32c-0.2,0.2-0.2,0.51,0,0.71l1.53,1.53c0.2,0.2,0.51,0.2,0.71,0l1.32-1.32 c0.2-0.2,0.51-0.2,0.71,0l1.32,1.32c0.2,0.2,0.51,0.2,0.71,0l1.32-1.32c0.2-0.2,0.51-0.2,0.71,0l1.32,1.32c0.2,0.2,0.51,0.2,0.71,0 l1.53-1.53C19.93,15.38,19.93,15.06,19.73,14.87z"/>
  <path fill="#607D8B" d="M15.04,4.34l0.93-0.93c0.2-0.2,0.2-0.51,0-0.71L14.9,1.64c-0.2-0.2-0.51-0.2-0.71,0l-0.93,0.93L12.33,1.64 c-0.2-0.2-0.51-0.2-0.71,0l-1.06,1.06c-0.2,0.2-0.2,0.51,0,0.71l0.93,0.93l-0.93,0.93c-0.2,0.2-0.2,0.51,0,0.71l1.06,1.06 c0.2,0.2,0.51,0.2,0.71,0l0.93-0.93l0.93,0.93c0.2,0.2,0.51,0.2,0.71,0l1.06-1.06c0.2-0.2,0.2-0.51,0-0.71L15.04,4.34z"/>
  <path fill="#607D8B" d="M7.04,4.34l0.93-0.93c0.2-0.2,0.2-0.51,0-0.71L6.9,1.64c-0.2-0.2-0.51-0.2-0.71,0L5.26,2.57L4.33,1.64 c-0.2-0.2-0.51-0.2-0.71,0L2.56,2.7c-0.2,0.2-0.2,0.51,0,0.71l0.93,0.93L2.56,5.27c-0.2,0.2-0.2,0.51,0,0.71l1.06,1.06 c0.2,0.2,0.51,0.2,0.71,0l0.93-0.93l0.93,0.93c0.2,0.2,0.51,0.2,0.71,0l1.06-1.06c0.2-0.2,0.2-0.51,0-0.71L7.04,4.34z"/>
</svg> 