<svg xmlns="http://www.w3.org/2000/svg" viewBox="0 0 24 24" width="24" height="24">
  <path fill="#366A96" d="M11.458,0.005C5.571,0.005,5.97,2.619,5.97,2.619l0.006,2.715h5.559v0.786H3.863 c0,0-3.864-0.44-3.864,5.649c0,6.089,3.375,5.876,3.375,5.876h2.013V14.82c0,0-0.109-3.375,3.32-3.375h5.717 c0,0,3.209,0.052,3.209-3.1V3.471c0,0,0.485-3.466-5.5-3.466H11.458z M8.472,1.482c0.552,0,1,0.448,1,1c0,0.552-0.448,1-1,1 c-0.552,0-1-0.448-1-1C7.472,1.93,7.92,1.482,8.472,1.482z"/>
  <path fill="#FFD43B" d="M11.541,23.995c5.887,0,5.488-2.614,5.488-2.614l-0.006-2.715h-5.559v-0.786h7.672 c0,0,3.864,0.44,3.864-5.649c0-6.089-3.375-5.876-3.375-5.876h-2.013v2.825c0,0,0.109,3.375-3.32,3.375H8.575 c0,0-3.209-0.052-3.209,3.1v4.874c0,0-0.485,3.466,5.5,3.466H11.541z M14.527,22.518c-0.552,0-1-0.448-1-1c0-0.552,0.448-1,1-1 c0.552,0,1,0.448,1,1C15.527,22.07,15.079,22.518,14.527,22.518z"/>
</svg> 