<svg xmlns="http://www.w3.org/2000/svg" viewBox="0 0 24 24" width="24" height="24">
  <path fill="#4CAF50" d="M12,2C6.48,2,2,6.48,2,12s4.48,10,10,10s10-4.48,10-10S17.52,2,12,2z M12,20c-4.41,0-8-3.59-8-8 s3.59-8,8-8s8,3.59,8,8S16.41,20,12,20z"/>
  <path fill="#4CAF50" d="M12,6c-3.31,0-6,2.69-6,6s2.69,6,6,6s6-2.69,6-6S15.31,6,12,6z M12,16c-2.21,0-4-1.79-4-4s1.79-4,4-4 s4,1.79,4,4S14.21,16,12,16z"/>
  <path fill="#4CAF50" d="M12,10c-1.1,0-2,0.9-2,2s0.9,2,2,2s2-0.9,2-2S13.1,10,12,10z"/>
  <path fill="#4CAF50" d="M6,12c0,0.55,0.45,1,1,1h2v2c0,0.55,0.45,1,1,1s1-0.45,1-1v-2h2c0.55,0,1-0.45,1-1s-0.45-1-1-1h-2V9 c0-0.55-0.45-1-1-1s-1,0.45-1,1v2H7C6.45,11,6,11.45,6,12z"/>
</svg> 