<svg xmlns="http://www.w3.org/2000/svg" viewBox="0 0 24 24" width="24" height="24">
  <path fill="#4CAF50" d="M12,2C6.48,2,2,6.48,2,12s4.48,10,10,10s10-4.48,10-10S17.52,2,12,2z M12,20c-4.41,0-8-3.59-8-8 s3.59-8,8-8s8,3.59,8,8S16.41,20,12,20z"/>
  <path fill="#4CAF50" d="M13,7h-2v5.17l-2.59,2.58l1.42,1.42l3.17-3.17V7z"/>
  <path fill="#4CAF50" d="M17,12c0,2.76-2.24,5-5,5s-5-2.24-5-5s2.24-5,5-5S17,9.24,17,12z M15,12c0-1.66-1.34-3-3-3s-3,1.34-3,3 s1.34,3,3,3S15,13.66,15,12z"/>
  <path fill="#4CAF50" d="M12,10c-1.1,0-2,0.9-2,2s0.9,2,2,2s2-0.9,2-2S13.1,10,12,10z"/>
  <path fill="#4CAF50" d="M12,11c-0.55,0-1,0.45-1,1s0.45,1,1,1s1-0.45,1-1S12.55,11,12,11z"/>
  <path fill="#4CAF50" d="M12,4c0.55,0,1-0.45,1-1s-0.45-1-1-1s-1,0.45-1,1S11.45,4,12,4z"/>
  <path fill="#4CAF50" d="M12,20c0.55,0,1-0.45,1-1s-0.45-1-1-1s-1,0.45-1,1S11.45,20,12,20z"/>
  <path fill="#4CAF50" d="M4,12c0,0.55,0.45,1,1,1s1-0.45,1-1s-0.45-1-1-1S4,11.45,4,12z"/>
  <path fill="#4CAF50" d="M18,12c0,0.55,0.45,1,1,1s1-0.45,1-1s-0.45-1-1-1S18,11.45,18,12z"/>
</svg> 